<?xml version="1.0" standalone="no"?>
<!DOCTYPE svg PUBLIC "-//W3C//DTD SVG 20010904//EN"
 "http://www.w3.org/TR/2001/REC-SVG-20010904/DTD/svg10.dtd">
<svg version="1.0" xmlns="http://www.w3.org/2000/svg"
 width="300.000000pt" height="300.000000pt" viewBox="0 0 300.000000 300.000000"
 preserveAspectRatio="xMidYMid meet">
<metadata>
Created by potrace 1.10, written by Peter Selinger 2001-2011
</metadata>
<g transform="translate(0.000000,300.000000) scale(0.100000,-0.100000)"
fill="#3e3e3e" stroke="none">
<path d="M1608 2926 c-21 -8 -50 -22 -65 -31 l-27 -18 22 -17 21 -18 -22 -6
c-12 -3 -45 -6 -73 -6 -175 0 -584 -56 -687 -93 -295 -107 -530 -515 -624
-1082 -25 -156 -25 -518 1 -660 52 -286 142 -471 303 -626 282 -272 751 -371
1242 -263 152 34 261 73 406 145 158 78 282 168 402 292 187 194 277 370 335
659 30 151 32 417 4 553 -22 107 -76 265 -118 349 -144 286 -398 526 -718 677
-80 38 -184 89 -232 114 -93 48 -112 52 -170 31z m-54 -261 c33 -9 130 -50
214 -91 l153 -76 60 19 59 20 93 -50 c50 -27 110 -62 132 -77 171 -118 311
-327 372 -557 24 -89 27 -116 27 -288 1 -150 -3 -208 -18 -275 -60 -276 -190
-524 -371 -706 -236 -238 -517 -337 -910 -321 -304 13 -556 92 -742 234 -210
159 -313 447 -313 873 0 509 169 955 427 1126 99 66 311 139 493 169 106 18
250 18 324 0z"/>
<path d="M943 1880 c-31 -13 -53 -61 -53 -115 0 -86 47 -135 131 -135 34 0 47
6 76 35 34 34 35 37 31 97 -4 55 -8 64 -41 94 -30 28 -44 34 -79 33 -24 0 -53
-4 -65 -9z"/>
<path d="M1883 1869 c-71 -21 -102 -103 -69 -184 40 -95 180 -89 222 11 18 43
18 68 -2 109 -27 57 -88 83 -151 64z"/>
<path d="M700 1405 c-17 -20 -7 -115 19 -190 62 -176 246 -322 492 -391 136
-37 353 -44 492 -16 186 39 344 138 427 268 53 84 91 244 58 244 -7 0 -48 -38
-90 -84 -167 -182 -357 -262 -613 -260 -185 2 -346 44 -495 131 -84 49 -180
145 -209 208 -49 109 -57 119 -81 90z"/>
</g>
</svg>
